# xmcd CD database file
#
# Track frame offsets:
#	150
#	43197
#	77312
#	113997
#	143097
#	174225
#	206677
#	228235
#
# Disc length: 3649 seconds
#
# Revision: 0
# Processed by: cddbd v1.5.1PL0 Copyright (c) Steve Scherf et al.
# Submitted via: CDex 1.50
#
DISCID=5f0e3f08
DTITLE=Houston Person - Lion And His Pride
DYEAR=1994
DGENRE=Jazz
TTITLE0=Dig
TTITLE1=I Remember Clifford
TTITLE2=Dear Heart
TTITLE3=Sweet Love (Theme From Black Orpheus)
TTITLE4=You Are Too Beautiful
TTITLE5=Like Someone In Love
TTITLE6=Our Day Will Come
TTITLE7=Captain Hook
EXTD=YEAR: 1994
EXTT0=
EXTT1=
EXTT2=
EXTT3=
EXTT4=
EXTT5=
EXTT6=
EXTT7=
PLAYORDER=
